<svg width="50" height="51" viewBox="0 0 50 51" fill="none" xmlns="http://www.w3.org/2000/svg">
<path d="M24.9363 0.00444334C24.9363 0.00444334 39.6724 -0.656839 47.4851 14.1551H23.6824C23.6824 14.1551 19.1904 14.0103 15.3532 19.4598C14.251 21.7471 13.0661 24.1033 14.3957 28.7467C12.4804 25.5018 4.22705 11.1308 4.22705 11.1308C4.22705 11.1308 10.0485 0.590011 24.9361 0.00444334H24.9363Z" fill="#EF3F36"/>
<path d="M46.7203 37.6063C46.7203 37.6063 39.9205 50.7029 23.1934 50.0553C25.2602 46.4797 35.098 29.4424 35.098 29.4424C35.098 29.4424 37.4749 25.6258 34.6709 19.577C33.2447 17.4758 31.791 15.2781 27.1065 14.1068C30.875 14.0725 47.4438 14.1068 47.4438 14.1068C47.4438 14.1068 53.6509 24.4202 46.7203 37.6063Z" fill="#FCD900"/>
<path d="M3.25568 37.7097C3.25568 37.7097 -4.68773 25.2745 4.24075 11.1101C6.30071 14.6857 16.1385 31.7229 16.1385 31.7229C16.1385 31.7229 18.2605 35.6912 24.8949 36.2834C27.4234 36.0976 30.055 35.9391 33.4172 32.4738C31.5636 35.7532 23.2481 50.0829 23.2481 50.0829C23.2481 50.0829 11.2057 50.3034 3.25548 37.7097H3.25568Z" fill="#61BC5B"/>
<path d="M23.1864 50.1793L26.5345 36.2079C26.5345 36.2079 30.2134 35.9183 33.2999 32.5358C31.3845 35.9048 23.1864 50.1793 23.1864 50.1793Z" fill="#5AB055"/>
<path d="M13.7206 25.2468C13.7206 19.0879 18.7154 14.0931 24.8743 14.0931C31.0333 14.0931 36.0281 19.0879 36.0281 25.2468C36.0281 31.406 31.0333 36.4006 24.8743 36.4006C18.7154 36.3937 13.7206 31.406 13.7206 25.2468Z" fill="white"/>
<path d="M15.5874 25.2468C15.5874 20.1213 19.7417 15.9601 24.8743 15.9601C29.9998 15.9601 34.161 20.1144 34.161 25.2468C34.161 30.3725 30.0069 34.5337 24.8743 34.5337C19.7486 34.5337 15.5874 30.3725 15.5874 25.2468Z" fill="url(#paint0_linear)"/>
<path d="M47.4368 14.1138L33.6512 18.1578C33.6512 18.1578 31.5707 15.1057 27.0996 14.1138C30.9783 14.093 47.4368 14.1138 47.4368 14.1138Z" fill="#EACA05"/>
<path d="M14.1271 28.2369C12.191 24.8817 4.22705 11.1308 4.22705 11.1308L14.437 21.2304C14.437 21.2304 13.3897 23.3868 13.7826 26.4731L14.1269 28.2369H14.1271Z" fill="#DF3A32"/>
<defs>
<linearGradient id="paint0_linear" x1="24.8738" y1="16.0912" x2="24.8738" y2="33.9746" gradientUnits="userSpaceOnUse">
<stop stop-color="#86BBE5"/>
<stop offset="1" stop-color="#1072BA"/>
</linearGradient>
</defs>
</svg>
