<svg width="50" height="50" viewBox="0 0 50 50" fill="none" xmlns="http://www.w3.org/2000/svg">
<path d="M9.12968 0C4.07224 0 0 4.07224 0 9.12968V40.8703C0 45.9277 4.07224 50 9.12968 50H26.3328V30.4531H21.1641V23.4156H26.3328V17.4031C26.3328 12.6794 29.3867 8.34218 36.4218 8.34218C39.2702 8.34218 41.3765 8.61563 41.3765 8.61563L41.2109 15.1875C41.2109 15.1875 39.0627 15.1672 36.7187 15.1672C34.1817 15.1672 33.7749 16.3361 33.7749 18.2766V23.4157H41.4124L41.0796 30.4531H33.7749V50H40.8702C45.9277 50 49.9999 45.9278 49.9999 40.8703V9.12973C49.9999 4.07229 45.9277 4.99999e-05 40.8702 4.99999e-05H9.12963L9.12968 0Z" fill="white"/>
</svg>
