<svg width="51" height="50" viewBox="0 0 51 50" fill="none" xmlns="http://www.w3.org/2000/svg">
<path d="M40.4925 4.65375C39.2419 6.07259 38.6556 9.2508 39.9258 12.4858C41.196 15.7207 43.1502 15.0208 44.3618 18.3125C45.9642 22.6636 45.2216 28.5092 45.2216 28.5092C45.2216 28.5092 47.1562 33.9197 48.5046 28.1687C51.4945 17.3666 40.4925 7.32117 40.4925 4.65375Z" fill="url(#paint0_radial)"/>
<path d="M25.1718 49.508C38.0497 49.508 48.4654 39.368 48.4654 26.8444C48.4654 14.3207 38.0302 4.19965 25.1718 4.19965C12.3134 4.19965 1.89773 14.3396 1.89773 26.8444C1.87819 39.368 12.3134 49.508 25.1718 49.508Z" fill="url(#paint1_radial)"/>
<path d="M42.6225 40.8247C42.1144 41.1653 41.5868 41.4679 41.0396 41.7517C41.7626 40.7112 42.4466 39.6518 43.0524 38.5546C43.5409 38.0249 44.0099 37.5141 44.3812 36.9466C44.5571 36.6628 44.7721 36.3412 44.987 35.9439C46.2963 33.6549 47.7424 29.9659 47.7815 26.1823V25.8985C47.7815 24.9526 47.6838 23.9878 47.4883 23.0608C47.5079 23.1365 47.5079 23.2122 47.5274 23.2878C47.5079 23.2311 47.5079 23.1743 47.4883 23.1176C47.5079 23.2122 47.5274 23.3257 47.547 23.4203C47.8205 25.6147 47.6251 27.7525 46.6676 29.3416C46.648 29.3605 46.6285 29.3794 46.6285 29.4172C47.117 27.0147 47.2929 24.3662 46.7458 21.7177C46.7458 21.7177 46.5308 20.4312 44.8893 16.5152C43.9513 14.264 42.2707 12.41 40.8051 11.0669C39.5154 9.51561 38.3233 8.47513 37.6784 7.813C36.3301 6.43199 35.7634 5.39151 35.5289 4.72938C35.3335 4.63479 32.7344 2.19438 32.539 2.09979C31.4056 3.8024 27.8686 9.09942 29.5491 14.037C30.3113 16.2882 32.2459 18.6151 34.2782 19.9205C34.3759 20.015 35.4898 21.188 36.0174 23.8365C36.5646 26.5796 36.2715 28.6984 35.1576 31.8576C33.8288 34.6197 30.4285 37.3628 27.2432 37.6465C20.4427 38.2519 17.9414 34.3359 17.9414 34.3359C20.3646 35.2818 23.0613 35.0737 24.7028 34.1089C26.3443 33.1252 27.3409 32.3874 28.1617 32.6711C28.9629 32.9549 29.5882 32.1225 29.0215 31.2523C28.1226 29.9091 26.4811 29.2281 24.8591 29.4929C23.2177 29.7578 21.6934 31.0253 19.5438 29.7956C19.407 29.7199 19.2702 29.6253 19.1335 29.5308C18.9967 29.4362 19.6025 29.6632 19.4461 29.5686C19.0357 29.3416 18.2736 28.8686 18.0977 28.6984C18.0587 28.6605 18.43 28.8119 18.3909 28.774C16.3781 27.166 16.6321 26.0688 16.6908 25.3877C16.7494 24.8391 17.1011 24.1391 17.7265 23.8554C18.0196 24.0067 18.215 24.1391 18.215 24.1391C18.215 24.1391 18.0782 23.8932 18.0196 23.7608C18.0391 23.7419 18.0587 23.7608 18.0977 23.7419C18.3518 23.8554 18.8794 24.1581 19.1725 24.3283C19.5438 24.5743 19.6611 24.8013 19.6611 24.8013C19.6611 24.8013 19.7588 24.7445 19.6806 24.5364C19.6611 24.4418 19.5438 24.1581 19.1725 23.8743H19.1921C19.407 23.9878 19.622 24.1391 19.8174 24.2905C19.9151 23.9311 20.1105 23.5527 20.0715 22.8716C20.0519 22.3987 20.0519 22.2663 19.9737 22.0771C19.8956 21.9258 20.0128 21.8501 20.1496 22.0203C20.1301 21.8879 20.091 21.7555 20.0324 21.642V21.6231C20.2082 21.0555 23.6085 19.561 23.8625 19.3908C24.2729 19.107 24.6051 18.7475 24.8591 18.3314C25.0546 18.0476 25.1914 17.6314 25.2304 17.0071C25.25 16.5531 25.035 16.2504 21.5762 15.9099C20.6382 15.8153 20.0715 15.1531 19.7588 14.5478C19.7002 14.4153 19.6415 14.3018 19.5829 14.1694C19.5243 14.037 19.4852 13.8856 19.4461 13.7343C20.0128 12.1641 20.9508 10.8399 22.3578 9.83721C22.436 9.76154 22.0452 9.85613 22.1233 9.78046C22.221 9.70479 22.7877 9.47777 22.905 9.42102C23.0418 9.36427 22.3383 9.06158 21.7129 9.13725C21.0876 9.21292 20.9508 9.28859 20.5991 9.42102C20.7359 9.28859 21.1853 9.09942 21.0876 9.11833C20.4037 9.21292 19.5634 9.6102 18.8403 10.0453C18.8403 9.96964 18.8599 9.89397 18.8794 9.8183C18.5472 9.95072 17.7069 10.5183 17.4724 10.9912C17.492 10.8966 17.492 10.802 17.492 10.7074C17.2379 10.9155 17.0034 11.1425 16.808 11.4074L16.6908 11.4452C14.7366 10.6885 12.9974 10.6318 11.5513 10.9723C11.2386 10.6696 11.0823 10.8966 10.3397 9.34535C10.2811 9.25076 10.3788 9.43994 10.3397 9.34535C10.2225 9.04266 10.4179 9.74263 10.3397 9.34535C9.12815 10.2912 7.52573 11.3506 6.74407 12.0884C6.74407 12.1263 7.64298 11.8425 6.74407 12.0884C6.4314 12.183 6.45095 12.3533 6.41186 13.9992C6.39232 14.1316 6.41186 14.264 6.39232 14.3775C5.76699 15.1342 5.35662 15.7774 5.20028 16.118C4.39908 17.4422 3.5197 19.5232 2.67941 22.796C3.05071 21.9068 3.50016 21.0555 4.02779 20.2421C3.32429 21.9825 2.64033 24.7256 2.50354 28.9254C2.67941 28.0552 2.89437 27.2038 3.16796 26.3525C2.99208 29.8524 3.61741 33.3332 4.98533 36.5682C5.47387 37.7222 6.27507 39.4816 7.66253 41.4112C12.0008 45.8191 18.0977 48.5622 24.8591 48.5622C31.9137 48.5622 38.2647 45.5731 42.6225 40.8247Z" fill="url(#paint2_linear)"/>
<path d="M37.3854 44.022C45.9251 43.0572 49.7162 34.5441 44.8503 34.3738C40.473 34.2414 33.3403 44.476 37.3854 44.022Z" fill="url(#paint3_radial)"/>
<path d="M45.4756 32.6334C51.3577 29.3228 49.8139 22.1718 49.8139 22.1718C49.8139 22.1718 47.5471 24.7257 46.0033 28.7931C44.4986 32.8226 41.9386 34.6387 45.4756 32.6334Z" fill="url(#paint4_radial)"/>
<path d="M26.8135 48.2596C35.021 50.7946 42.056 44.5328 37.7177 42.4518C33.7703 40.5789 22.9247 47.0678 26.8135 48.2596Z" fill="url(#paint5_radial)"/>
<path d="M46.1009 35.6792C46.2964 35.4143 46.5699 34.5441 46.8044 34.1468C48.2505 31.8767 48.2701 30.0795 48.2701 30.0416C49.1494 25.8229 49.0713 24.0825 48.5241 20.9043C48.0942 18.3314 46.1986 14.6425 44.5572 12.8831C42.8766 11.0481 44.0491 11.6534 42.4271 10.3103C41.0006 8.7779 39.5936 7.24555 38.851 6.64018C33.3793 2.21339 33.4966 1.26749 33.6138 1.11615L33.5357 1.19182C33.4771 0.94589 33.4184 0.737793 33.4184 0.737793C33.4184 0.737793 30.409 3.61331 29.7837 8.43738C29.3733 11.5778 30.5849 14.8695 32.3632 16.9694C33.2816 18.0666 34.3173 19.0503 35.4508 19.9206C36.7796 21.7745 37.5222 24.0636 37.5222 26.5229C37.5222 32.6901 32.3632 37.6656 25.9926 37.6656C25.1328 37.6656 24.2534 37.571 23.4131 37.3818C20.4037 36.8332 18.6841 35.3576 17.8047 34.3549C17.3161 33.7874 17.1012 33.3712 17.1012 33.3712C19.7979 34.2982 22.7682 34.109 24.5856 33.1442C26.403 32.1604 27.5169 31.4416 28.4158 31.7253C29.2951 32.0091 29.9986 31.1767 29.3733 30.3254C28.748 29.4741 27.1456 28.2444 24.7615 28.585C22.9441 28.8498 21.2635 30.0984 18.8795 28.8876C18.7231 28.812 18.5668 28.7174 18.43 28.6417C18.2737 28.5471 18.9381 28.7741 18.7818 28.6795C18.3128 28.4525 17.492 27.9796 17.2771 27.8093C17.238 27.7715 17.6288 27.9228 17.6093 27.885C15.3815 26.2959 15.6551 25.2176 15.7137 24.5365C15.7724 23.9879 16.1827 23.3069 16.8667 23.0231C17.1989 23.1744 17.3943 23.3069 17.3943 23.3069C17.3943 23.3069 17.2575 23.0609 17.1793 22.9285C17.1989 22.9096 17.238 22.9285 17.2575 22.9096C17.5311 23.0231 18.1369 23.3069 18.4496 23.496C18.8599 23.742 18.9967 23.969 18.9967 23.969C18.9967 23.969 19.114 23.9122 19.0163 23.7041C18.9772 23.6095 18.8599 23.3258 18.4496 23.042H18.4691C18.7036 23.1555 18.9381 23.3069 19.1531 23.4582C19.2703 23.0988 19.4657 22.7204 19.4266 22.0394C19.4071 21.5664 19.4071 21.434 19.3094 21.2637C19.2312 21.1124 19.3485 21.0367 19.5048 21.207C19.4853 21.0745 19.4266 20.961 19.368 20.8286V20.8097C19.5634 20.2422 23.335 18.7666 23.6085 18.5963C24.058 18.3314 24.4293 17.972 24.7224 17.5558C24.9374 17.272 25.0937 16.8559 25.1328 16.2316C25.1523 15.9478 25.0546 15.7397 24.058 15.5127C23.4522 15.3803 22.5338 15.2667 21.0877 15.1343C20.052 15.0397 19.4266 14.3965 19.0749 13.7912C19.0163 13.6587 18.9381 13.5452 18.8795 13.4317C18.8208 13.2993 18.7622 13.1479 18.7231 13.0155C19.3485 11.4264 20.4819 10.0832 21.9475 9.15626C22.0257 9.08059 21.6153 9.17518 21.6935 9.09951C21.7912 9.02384 22.436 8.79682 22.5533 8.74007C22.7096 8.68331 21.928 8.39955 21.2245 8.4563C20.521 8.53197 20.3842 8.58873 19.9933 8.74007C20.1497 8.60764 20.6382 8.43738 20.521 8.43738C19.8175 8.51305 18.8795 8.89141 18.0783 9.32652C18.0783 9.25085 18.0978 9.17518 18.1173 9.09951C17.7461 9.23193 16.8276 9.79947 16.554 10.2724C16.5736 10.1778 16.5736 10.0832 16.5736 10.0076C16.3 10.2157 16.0264 10.4427 15.8114 10.7075L15.7919 10.7264C13.6228 9.96973 11.7077 9.91298 10.1053 10.2535C9.75353 9.95081 9.18683 9.47787 8.38562 7.94552C8.327 7.85093 8.30746 8.1347 8.26837 8.04011C7.95571 7.34014 7.76029 6.18615 7.79937 5.3916C7.79937 5.3916 7.1545 5.67537 6.62688 6.8672C6.52917 7.07529 6.47054 7.20772 6.39238 7.32123C6.35329 7.35906 6.451 6.92395 6.451 6.96178C6.35329 7.11313 6.11879 7.32123 6.02108 7.60499C5.94292 7.81309 5.84521 7.9266 5.78659 8.17253L5.76704 8.19145C5.76704 8.11578 5.78659 7.88876 5.76704 7.9266C5.513 8.41846 5.29805 8.92925 5.12217 9.44003C4.82905 10.3481 4.49684 11.5967 4.43821 13.2236C4.41867 13.3371 4.43821 13.4885 4.41867 13.602C3.73472 14.3587 3.26572 15.0019 3.08984 15.3235C2.21047 16.6478 1.23339 18.6909 0.295392 21.9448C0.705766 21.0556 1.21385 20.2043 1.8001 19.4098C1.01843 21.1313 0.256309 23.8555 0.0999756 28.0174C0.295392 27.1472 0.529891 26.2959 0.823015 25.4635C0.686224 28.2444 1.01843 31.7064 2.8358 35.6035C3.91059 37.8926 6.39238 42.5464 12.4698 46.1786C12.4698 46.1786 14.5412 47.6731 18.0783 48.7893C18.3323 48.8839 18.6059 48.9785 18.8795 49.0541C18.8013 49.0163 18.7036 48.9785 18.6254 48.9595C20.99 49.6406 23.4327 50 25.9144 50C35.099 50 37.8153 46.4245 37.8153 46.4245L37.7957 46.4435C37.9325 46.33 38.0498 46.1975 38.167 46.084C36.721 47.4083 33.3989 47.5029 32.1678 47.4083C34.2783 46.8029 35.6657 46.2921 38.3625 45.3084C38.6751 45.1949 39.0073 45.0625 39.3395 44.9111L39.4372 44.8544C39.4959 44.8165 39.574 44.7976 39.6327 44.7598C40.9419 44.1544 42.1926 43.4166 43.326 42.5275C46.0423 40.4276 46.6286 38.3844 46.9412 37.0413C46.9021 37.1737 46.7654 37.4764 46.6676 37.6656C45.9641 39.1033 44.4204 40.0114 42.7398 40.7681C43.541 39.7465 44.2836 38.6871 44.9675 37.5899C45.5147 37.0602 45.671 36.2278 46.1009 35.6792Z" fill="url(#paint6_radial)"/>
<path d="M42.7985 40.6924C43.9123 39.5195 44.8894 38.1574 45.6515 36.6251C47.5862 32.6901 50.576 26.1256 48.231 19.2963C46.3746 13.8857 43.8146 10.9345 40.5707 8.04011C35.2945 3.34847 33.8289 1.24858 33.8289 0C33.8289 0 27.7319 6.56451 30.37 13.4317C33.0081 20.2989 38.4211 20.0341 41.9973 27.185C46.2183 35.6035 38.597 44.7976 32.2851 47.3704C32.6759 47.2948 46.2964 44.3057 47.0195 36.7575C46.9804 36.8899 46.6677 38.9898 42.7985 40.6924Z" fill="url(#paint7_radial)"/>
<path d="M25.1327 16.2317C25.1523 15.7776 24.9178 15.4939 21.1071 15.1344C19.5438 15.002 18.938 13.6021 18.7621 12.9967C18.215 14.3966 17.9805 15.8722 18.0977 17.6505C18.1759 18.8234 18.9966 20.072 19.3679 20.7909C19.3679 20.7909 19.4461 20.6774 19.4852 20.6395C20.2082 19.9017 23.2567 18.7856 23.5498 18.6342C23.8821 18.4451 25.0936 17.5938 25.1327 16.2317Z" fill="url(#paint8_linear)"/>
<path d="M8.38583 7.94558C8.32721 7.85099 8.30767 8.13476 8.26858 8.04017C7.95592 7.34021 7.7605 6.20513 7.81913 5.39166C7.81913 5.39166 7.17425 5.67543 6.64663 6.86726C6.54892 7.07536 6.4903 7.20778 6.41213 7.32129C6.37305 7.35913 6.47076 6.92401 6.47076 6.96185C6.37305 7.11319 6.13855 7.32129 6.04084 7.58614C5.96267 7.79424 5.86496 7.92666 5.80634 8.19151C5.7868 8.26718 5.82588 7.86991 5.80634 7.92666C4.55568 10.2536 4.32118 13.7723 4.45797 13.621C7.11563 10.8779 10.1446 10.2346 10.1446 10.2346C9.77329 10.0076 9.06979 9.32659 8.38583 7.94558Z" fill="url(#paint9_linear)"/>
<path d="M18.43 36.5873C14.7757 35.0739 10.6133 32.9361 10.7697 28.0932C10.9846 21.7178 16.9253 22.9664 16.9253 22.9664C16.7103 23.0232 16.1045 23.4393 15.8896 23.8745C15.6746 24.4231 15.2642 25.6717 16.4953 26.977C18.4495 29.0201 12.4893 31.82 21.6739 37.117C21.9084 37.2305 19.5243 37.0413 18.43 36.5873Z" fill="url(#paint10_linear)"/>
<path d="M17.1403 33.4091C19.7393 34.2793 22.7488 34.128 24.5661 33.1632C25.7777 32.501 27.341 31.4606 28.279 31.7254C27.4583 31.4038 26.833 31.2525 26.0708 31.2335C25.934 31.2335 25.7972 31.2335 25.6605 31.2146C25.3869 31.2146 25.1133 31.2335 24.8397 31.2525C24.3707 31.2903 23.8626 31.5741 23.3936 31.5362C23.3741 31.5362 23.8431 31.347 23.804 31.347C23.55 31.4038 23.2764 31.4038 23.0028 31.4416C22.8269 31.4606 22.6706 31.4795 22.4752 31.4984C17.0621 31.9335 12.5089 28.6607 12.5089 28.6607C12.1181 29.9093 14.2482 32.4254 17.1403 33.4091Z" fill="url(#paint11_linear)"/>
<path d="M42.7788 40.7303C48.2505 35.5279 51.0058 29.2282 49.8333 22.134C49.8333 22.134 50.3023 25.7663 48.5241 29.4742C49.3839 25.8419 49.4816 21.3395 47.2148 16.6667C44.2054 10.4427 39.2418 7.15103 37.3463 5.78894C34.4736 3.70797 33.2816 1.60809 33.2621 1.17297C32.4022 2.87559 29.8032 8.7023 32.9885 13.7155C35.9588 18.4261 40.6488 19.8071 43.9122 24.1204C49.9701 32.0848 42.7788 40.7303 42.7788 40.7303Z" fill="url(#paint12_linear)"/>
<path d="M41.997 27.2039C40.0819 23.3824 37.6978 21.7177 35.4506 19.9205C35.7046 20.2799 35.7828 20.3934 35.9196 20.6394C37.9128 22.6825 40.8245 27.6768 38.714 33.9576C34.708 45.7623 18.7229 40.2005 17.0424 38.6492C17.7263 45.4786 29.5295 48.7514 37.2288 44.3246C41.5866 40.2761 45.1237 33.4657 41.997 27.2039Z" fill="url(#paint13_linear)"/>
<defs>
<radialGradient id="paint0_radial" cx="0" cy="0" r="1" gradientUnits="userSpaceOnUse" gradientTransform="translate(49.1772 15.4432) rotate(2.18823) scale(17.9949 25.6794)">
<stop offset="0.1" stop-color="#FFEA00"/>
<stop offset="0.17" stop-color="#FFDE00"/>
<stop offset="0.28" stop-color="#FFBF00"/>
<stop offset="0.43" stop-color="#FF8E00"/>
<stop offset="0.77" stop-color="#FF272D"/>
<stop offset="0.87" stop-color="#E0255A"/>
<stop offset="0.95" stop-color="#CC2477"/>
<stop offset="1" stop-color="#C42482"/>
</radialGradient>
<radialGradient id="paint1_radial" cx="0" cy="0" r="1" gradientUnits="userSpaceOnUse" gradientTransform="translate(32.8338 7.73272) scale(51.0697 49.4397)">
<stop stop-color="#00CCDA"/>
<stop offset="0.22" stop-color="#0083FF"/>
<stop offset="0.26" stop-color="#007AF9"/>
<stop offset="0.33" stop-color="#005FE7"/>
<stop offset="0.44" stop-color="#2639AD"/>
<stop offset="0.52" stop-color="#401E84"/>
<stop offset="0.57" stop-color="#4A1475"/>
</radialGradient>
<linearGradient id="paint2_linear" x1="28.4632" y1="37.0385" x2="18.9978" y2="5.05503" gradientUnits="userSpaceOnUse">
<stop stop-color="#000F43" stop-opacity="0.4"/>
<stop offset="0.48" stop-color="#001962" stop-opacity="0.17"/>
<stop offset="1" stop-color="#002079" stop-opacity="0"/>
</linearGradient>
<radialGradient id="paint3_radial" cx="0" cy="0" r="1" gradientUnits="userSpaceOnUse" gradientTransform="translate(50.753 33.2609) rotate(5.43922) scale(17.1627 16.6249)">
<stop stop-color="#FFEA00"/>
<stop offset="0.5" stop-color="#FF272D"/>
<stop offset="1" stop-color="#C42482"/>
</radialGradient>
<radialGradient id="paint4_radial" cx="0" cy="0" r="1" gradientUnits="userSpaceOnUse" gradientTransform="translate(50.8184 17.2541) rotate(5.43922) scale(28.66 27.7619)">
<stop stop-color="#FFE900"/>
<stop offset="0.16" stop-color="#FFAF0E"/>
<stop offset="0.32" stop-color="#FF7A1B"/>
<stop offset="0.47" stop-color="#FF4E26"/>
<stop offset="0.62" stop-color="#FF2C2E"/>
<stop offset="0.76" stop-color="#FF1434"/>
<stop offset="0.89" stop-color="#FF0538"/>
<stop offset="1" stop-color="#FF0039"/>
</radialGradient>
<radialGradient id="paint5_radial" cx="0" cy="0" r="1" gradientUnits="userSpaceOnUse" gradientTransform="translate(52.2529 43.242) rotate(5.43923) scale(26.2986 25.4746)">
<stop stop-color="#FF272D"/>
<stop offset="0.5" stop-color="#C42482"/>
<stop offset="0.99" stop-color="#620700"/>
</radialGradient>
<radialGradient id="paint6_radial" cx="0" cy="0" r="1" gradientUnits="userSpaceOnUse" gradientTransform="translate(37.6096 20.0163) scale(41.0445 39.7345)">
<stop offset="0.16" stop-color="#FFEA00"/>
<stop offset="0.23" stop-color="#FFDE00"/>
<stop offset="0.37" stop-color="#FFBF00"/>
<stop offset="0.54" stop-color="#FF8E00"/>
<stop offset="0.76" stop-color="#FF272D"/>
<stop offset="0.8" stop-color="#F92433"/>
<stop offset="0.84" stop-color="#E91C45"/>
<stop offset="0.89" stop-color="#CF0E62"/>
<stop offset="0.94" stop-color="#B5007F"/>
</radialGradient>
<radialGradient id="paint7_radial" cx="0" cy="0" r="1" gradientUnits="userSpaceOnUse" gradientTransform="translate(35.2563 1.5887) scale(46.7784 45.2854)">
<stop offset="0.28" stop-color="#FFEA00"/>
<stop offset="0.4" stop-color="#FFDD00"/>
<stop offset="0.63" stop-color="#FFBA00"/>
<stop offset="0.86" stop-color="#FF9100"/>
<stop offset="0.93" stop-color="#FF6711"/>
<stop offset="0.99" stop-color="#FF4A1D"/>
</radialGradient>
<linearGradient id="paint8_linear" x1="7.87662" y1="18.548" x2="27.9942" y2="15.3746" gradientUnits="userSpaceOnUse">
<stop stop-color="#C42482" stop-opacity="0.5"/>
<stop offset="0.47" stop-color="#FF272D" stop-opacity="0.5"/>
<stop offset="0.49" stop-color="#FF2C2C" stop-opacity="0.51"/>
<stop offset="0.68" stop-color="#FF7A1A" stop-opacity="0.72"/>
<stop offset="0.83" stop-color="#FFB20D" stop-opacity="0.87"/>
<stop offset="0.94" stop-color="#FFD605" stop-opacity="0.96"/>
<stop offset="1" stop-color="#FFE302"/>
</linearGradient>
<linearGradient id="paint9_linear" x1="7.72517" y1="13.4329" x2="5.74726" y2="6.08937" gradientUnits="userSpaceOnUse">
<stop stop-color="#891551" stop-opacity="0.6"/>
<stop offset="1" stop-color="#C42482" stop-opacity="0"/>
</linearGradient>
<linearGradient id="paint10_linear" x1="11.5603" y1="23.7056" x2="15.7046" y2="29.6861" gradientUnits="userSpaceOnUse">
<stop offset="0.01" stop-color="#891551" stop-opacity="0.5"/>
<stop offset="0.48" stop-color="#FF272D" stop-opacity="0.5"/>
<stop offset="1" stop-color="#FF272D" stop-opacity="0"/>
</linearGradient>
<linearGradient id="paint11_linear" x1="19.9944" y1="33.8956" x2="20.3658" y2="30.1326" gradientUnits="userSpaceOnUse">
<stop stop-color="#C42482"/>
<stop offset="0.08" stop-color="#C42482" stop-opacity="0.81"/>
<stop offset="0.21" stop-color="#C42482" stop-opacity="0.57"/>
<stop offset="0.33" stop-color="#C42482" stop-opacity="0.36"/>
<stop offset="0.45" stop-color="#C42482" stop-opacity="0.2"/>
<stop offset="0.56" stop-color="#C42482" stop-opacity="0.09"/>
<stop offset="0.67" stop-color="#C42482" stop-opacity="0.02"/>
<stop offset="0.77" stop-color="#C42482" stop-opacity="0"/>
</linearGradient>
<linearGradient id="paint12_linear" x1="32.635" y1="1.83775" x2="47.8255" y2="36.9255" gradientUnits="userSpaceOnUse">
<stop stop-color="#FFF14F"/>
<stop offset="0.27" stop-color="#FFEE4C"/>
<stop offset="0.45" stop-color="#FFE643"/>
<stop offset="0.61" stop-color="#FFD834"/>
<stop offset="0.76" stop-color="#FFC41E"/>
<stop offset="0.89" stop-color="#FFAB02"/>
<stop offset="0.9" stop-color="#FFA900"/>
<stop offset="0.95" stop-color="#FFA000"/>
<stop offset="1" stop-color="#FF9100"/>
</linearGradient>
<linearGradient id="paint13_linear" x1="35.8195" y1="21.8073" x2="28.6446" y2="41.7076" gradientUnits="userSpaceOnUse">
<stop stop-color="#FF8E00"/>
<stop offset="0.04" stop-color="#FF8E00" stop-opacity="0.86"/>
<stop offset="0.08" stop-color="#FF8E00" stop-opacity="0.73"/>
<stop offset="0.13" stop-color="#FF8E00" stop-opacity="0.63"/>
<stop offset="0.18" stop-color="#FF8E00" stop-opacity="0.56"/>
<stop offset="0.23" stop-color="#FF8E00" stop-opacity="0.51"/>
<stop offset="0.28" stop-color="#FF8E00" stop-opacity="0.5"/>
<stop offset="0.39" stop-color="#FF8E00" stop-opacity="0.48"/>
<stop offset="0.52" stop-color="#FF8E00" stop-opacity="0.42"/>
<stop offset="0.68" stop-color="#FF8E00" stop-opacity="0.31"/>
<stop offset="0.84" stop-color="#FF8E00" stop-opacity="0.17"/>
<stop offset="1" stop-color="#FF8E00" stop-opacity="0"/>
</linearGradient>
</defs>
</svg>
