<svg width="50" height="50" viewBox="0 0 50 50" fill="none" xmlns="http://www.w3.org/2000/svg">
<path d="M16.7773 39.082C14.0039 35.8203 12.2266 30.9961 12.1094 25.5859V24.4141C12.2266 19.0039 14.0234 14.1797 16.7773 10.918C20.3711 6.26953 25.6445 4.17969 31.6016 4.17969C35.2734 4.17969 38.7305 4.43359 41.6602 6.38672C37.2656 2.42188 31.4648 0.0195312 25.0977 0H25C11.1914 0 0 11.1914 0 25C0 38.3984 10.5469 49.3555 23.8086 49.9805C24.1992 50 24.6094 50 25 50C31.4062 50 37.2461 47.5977 41.6602 43.6328C38.7305 45.5859 35.4688 45.6641 31.7969 45.6641C25.8594 45.6836 20.3516 43.75 16.7773 39.082Z" fill="url(#paint0_linear)"/>
<path d="M16.7773 10.918C19.0625 8.20313 22.0312 6.58203 25.2734 6.58203C32.5586 6.58203 38.457 14.8242 38.457 25.0195C38.457 35.2148 32.5586 43.457 25.2734 43.457C22.0312 43.457 19.082 41.8164 16.7773 39.1211C20.3711 43.7695 25.7031 46.7383 31.6406 46.7383C35.293 46.7383 38.7305 45.625 41.6602 43.6719C46.7773 39.0625 50 32.4023 50 25C50 17.5977 46.7773 10.9375 41.6602 6.36719C38.7305 4.41406 35.3125 3.30078 31.6406 3.30078C25.6836 3.30078 20.3516 6.25 16.7773 10.918Z" fill="url(#paint1_linear)"/>
<defs>
<linearGradient id="paint0_linear" x1="20.8313" y1="0.815" x2="20.8313" y2="49.2725" gradientUnits="userSpaceOnUse">
<stop offset="0.3" stop-color="#FF1B2D"/>
<stop offset="0.4381" stop-color="#FA1A2C"/>
<stop offset="0.5939" stop-color="#ED1528"/>
<stop offset="0.7581" stop-color="#D60E21"/>
<stop offset="0.9272" stop-color="#B70519"/>
<stop offset="1" stop-color="#A70014"/>
</linearGradient>
<linearGradient id="paint1_linear" x1="33.3854" y1="3.6713" x2="33.3854" y2="46.5294" gradientUnits="userSpaceOnUse">
<stop stop-color="#9C0000"/>
<stop offset="0.7" stop-color="#FF4B4B"/>
</linearGradient>
</defs>
</svg>
