<svg width="62" height="51" viewBox="0 0 62 51" fill="none" xmlns="http://www.w3.org/2000/svg">
<path d="M55.2343 12.4798C55.275 13.028 55.275 13.573 55.275 14.1181C55.275 30.7983 42.5792 50.019 19.3773 50.019C12.229 50.019 5.58827 47.9484 0 44.3524C1.01491 44.4683 1.99223 44.509 3.04786 44.509C8.72695 44.5227 14.2452 42.6237 18.7132 39.1181C16.0801 39.0704 13.5277 38.2017 11.4122 36.6332C9.29677 35.0648 7.72392 32.8748 6.91329 30.3692C7.69327 30.4851 8.47638 30.5634 9.29708 30.5634C10.4279 30.5634 11.565 30.4068 12.6206 30.1343C9.76306 29.5573 7.19356 28.0084 5.34901 25.751C3.50446 23.4935 2.49872 20.6669 2.50282 17.7517V17.5951C4.18494 18.5317 6.13645 19.1175 8.20386 19.1958C6.4719 18.0449 5.05175 16.4832 4.0701 14.65C3.08846 12.8167 2.57585 10.7691 2.578 8.68958C2.578 6.34651 3.20135 4.19766 4.29457 2.32446C7.46504 6.22441 11.4193 9.41493 15.9013 11.6894C20.3833 13.9638 25.2931 15.2715 30.3126 15.5277C30.1184 14.588 29.9994 13.6138 29.9994 12.6364C29.9985 10.9793 30.3243 9.33817 30.9581 7.80698C31.5919 6.27579 32.5213 4.88452 33.6931 3.71272C34.8649 2.54091 36.2562 1.61155 37.7874 0.977754C39.3186 0.343959 40.9597 0.01816 42.6168 0.0189835C46.2505 0.0189835 49.5301 1.54135 51.8356 4.00345C54.6603 3.4572 57.3692 2.42602 59.8421 0.955582C58.9005 3.87131 56.9282 6.3437 54.2946 7.9096C56.7999 7.62385 59.2483 6.96502 61.5587 5.95496C59.8331 8.47061 57.6949 10.6766 55.2343 12.4798Z" fill="white"/>
</svg>
